<?xml version="1.0" standalone="no"?>
<svg version="1.1" id="downloadSvg" xmlns="http://www.w3.org/2000/svg" xmlns:xlink="http://www.w3.org/1999/xlink" x="0px" y="0px" viewBox="0 0 1200 1200" enable-background="new 0 0 1200 1200" xml:space="preserve" height="512" width="512">
<g>
	<g>
		<g>
			<path fill="#506FA6" d="M920.932,447.829c-29.299-26.866-65.411-44.428-104.427-50.791c-10.786-1.762-21.809-2.664-32.764-2.68&#10;&#9;&#9;&#9;&#9;c-5.422,0-10.996,0.207-16.365,0.639c-40.204,3.125-78.202,18-109.899,43.021l-4.651-5.892&#10;&#9;&#9;&#9;&#9;c32.871-25.946,72.276-41.373,113.957-44.612c5.563-0.448,11.263-0.706,16.971-0.661c11.355,0.017,22.781,0.951,33.961,2.776&#10;&#9;&#9;&#9;&#9;c40.464,6.6,77.91,24.812,108.29,52.669L920.932,447.829z"/>
		</g>
		<g>
			<path fill="#506FA6" d="M618.045,728.906c-23.356-29.4-38.429-64.542-43.59-101.628c-1.367-9.756-2.052-19.756-2.037-29.719&#10;&#9;&#9;&#9;&#9;c0.071-48.03,15.861-93.257,45.66-130.791l5.88,4.666c-28.739,36.198-43.966,79.815-44.035,126.137&#10;&#9;&#9;&#9;&#9;c-0.013,9.611,0.648,19.256,1.965,28.668c4.977,35.761,19.511,69.647,42.034,97.997L618.045,728.906z"/>
		</g>
		<g>
			<path fill="#506FA6" d="M783.442,808.875c-0.107,0-0.21,0-0.317,0c-5.693-0.009-11.405-0.248-16.977-0.712&#10;&#9;&#9;&#9;&#9;c-41.434-3.341-80.642-18.762-113.377-44.595l4.651-5.892c31.568,24.912,69.377,39.783,109.339,43.006&#10;&#9;&#9;&#9;&#9;c5.38,0.448,10.886,0.679,16.376,0.688c0.099,0,0.206,0,0.305,0c50.638,0,99.15-18.709,136.641-52.705l5.042,5.562&#10;&#9;&#9;&#9;&#9;C886.251,789.475,835.944,808.875,783.442,808.875z"/>
		</g>
		<g>
			<path fill="#506FA6" d="M957.27,717.478l-6.178-4.264c23.386-33.897,35.781-73.677,35.842-115.039&#10;&#9;&#9;&#9;&#9;c0.062-41.179-12.103-80.841-35.178-114.701l6.202-4.228c23.931,35.114,36.547,76.243,36.482,118.94&#10;&#9;&#9;&#9;&#9;C994.378,641.074,981.525,682.324,957.27,717.478z"/>
		</g>
		<g>
			<g>
				<path fill="#506FA6" d="M791.32,960.265c-0.027,0-0.054,0-0.081,0c-14.369-0.021-27.871-5.637-38.016-15.813&#10;&#9;&#9;&#9;&#9;&#9;c-10.146-10.177-15.721-23.694-15.698-38.063c0.021-14.369,5.637-27.871,15.813-38.016&#10;&#9;&#9;&#9;&#9;&#9;c10.155-10.125,23.641-15.698,37.979-15.698c0.029,0,0.056,0,0.084,0c29.661,0.044,53.758,24.211,53.715,53.875l0,0&#10;&#9;&#9;&#9;&#9;&#9;C845.07,936.185,820.944,960.265,791.32,960.265z M791.316,860.181c-12.338,0-23.94,4.796-32.678,13.509&#10;&#9;&#9;&#9;&#9;&#9;c-8.756,8.729-13.589,20.347-13.607,32.711c-0.018,12.363,4.779,23.995,13.509,32.75c8.729,8.756,20.347,13.588,32.711,13.607&#10;&#9;&#9;&#9;&#9;&#9;c0.021,0,0.047,0,0.069,0c25.492,0,46.249-20.719,46.288-46.221c0.038-25.524-20.697-46.32-46.221-46.357&#10;&#9;&#9;&#9;&#9;&#9;C791.364,860.181,791.34,860.181,791.316,860.181z"/>
			</g>
			<g>
				<g>
					<g>
						
							<rect x="785.924" y="830.529" transform="matrix(0.0016 -1 1 0.0016 -19.1403 1649.3925)" fill="#506FA6" width="61.048" height="7.506"/>
					</g>
					<g>
						
							<rect x="735.882" y="830.454" transform="matrix(0.0016 -1 1 0.0016 -69.0286 1599.2756)" fill="#506FA6" width="61.046" height="7.506"/>
					</g>
				</g>
			</g>
		</g>
		<g>
			<g>
				<path fill="#506FA6" d="M792.231,347.325c-0.027,0-0.054,0-0.081,0c-14.369-0.021-27.869-5.637-38.015-15.813&#10;&#9;&#9;&#9;&#9;&#9;c-10.146-10.176-15.721-23.693-15.7-38.063c0.021-14.369,5.637-27.869,15.813-38.015c10.156-10.126,23.641-15.7,37.982-15.7&#10;&#9;&#9;&#9;&#9;&#9;c0.027,0,0.054,0,0.081,0c29.661,0.045,53.758,24.212,53.715,53.875c-0.021,14.369-5.637,27.869-15.813,38.015&#10;&#9;&#9;&#9;&#9;&#9;C820.056,341.751,806.571,347.325,792.231,347.325z M792.229,247.241c-12.339,0-23.942,4.796-32.681,13.509&#10;&#9;&#9;&#9;&#9;&#9;c-8.756,8.73-13.589,20.347-13.607,32.711c-0.018,12.365,4.781,23.996,13.509,32.75c8.73,8.756,20.347,13.589,32.711,13.607&#10;&#9;&#9;&#9;&#9;&#9;c0.023,0,0.047,0,0.069,0c12.339,0,23.942-4.796,32.681-13.509c8.756-8.73,13.589-20.347,13.607-32.711&#10;&#9;&#9;&#9;&#9;&#9;c0.038-25.522-20.697-46.318-46.221-46.357C792.276,247.241,792.252,247.241,792.229,247.241z"/>
			</g>
			<g>
				<g>
					<g>
						
							<rect x="736.578" y="361.965" transform="matrix(0.0016 -1 1 0.0016 400.156 1132.2338)" fill="#506FA6" width="61.048" height="7.506"/>
					</g>
					<g>
						
							<rect x="786.619" y="362.039" transform="matrix(0.0016 -1 1 0.0016 450.0435 1182.3484)" fill="#506FA6" width="61.048" height="7.506"/>
					</g>
				</g>
			</g>
		</g>
		<g>
			<g>
				<g>
					<g>
						
							<rect x="546.738" y="596.895" transform="matrix(0.0015 -1 1 0.0015 -77.0378 1176.2692)" fill="#506FA6" width="7.506" height="59.632"/>
					</g>
					<g>
						
							<rect x="543.982" y="549.678" transform="matrix(0.0015 -1 1 0.0015 -29.7525 1123.5314)" fill="#506FA6" width="7.506" height="53.973"/>
					</g>
				</g>
				<g>
					<path fill="#506FA6" d="M479.01,655.378c-0.027,0-0.054,0-0.081,0c-14.369-0.021-27.871-5.637-38.016-15.813&#10;&#9;&#9;&#9;&#9;&#9;&#9;c-10.146-10.177-15.721-23.694-15.698-38.063c0.021-14.369,5.637-27.871,15.813-38.016&#10;&#9;&#9;&#9;&#9;&#9;&#9;c10.155-10.125,23.641-15.698,37.979-15.698c0.029,0,0.056,0,0.084,0c14.369,0.021,27.869,5.637,38.015,15.813&#10;&#9;&#9;&#9;&#9;&#9;&#9;c10.146,10.176,15.721,23.693,15.7,38.063C532.759,631.298,508.634,655.378,479.01,655.378z M479.006,555.294&#10;&#9;&#9;&#9;&#9;&#9;&#9;c-12.338,0-23.94,4.796-32.678,13.509c-8.756,8.729-13.589,20.347-13.607,32.711c-0.018,12.363,4.779,23.995,13.509,32.75&#10;&#9;&#9;&#9;&#9;&#9;&#9;c8.729,8.756,20.347,13.588,32.711,13.607c0.021,0,0.047,0,0.069,0c25.492,0.002,46.249-20.719,46.288-46.221&#10;&#9;&#9;&#9;&#9;&#9;&#9;c0.018-12.365-4.781-23.996-13.509-32.75c-8.73-8.756-20.347-13.589-32.711-13.607l0,0&#10;&#9;&#9;&#9;&#9;&#9;&#9;C479.054,555.294,479.03,555.294,479.006,555.294z"/>
				</g>
				<g>
					<path fill="#506FA6" d="M1096.206,647.955c-0.027,0-0.054,0-0.081,0c-29.661-0.045-53.758-24.212-53.715-53.875&#10;&#9;&#9;&#9;&#9;&#9;&#9;c0.021-14.369,5.637-27.871,15.813-38.016c10.156-10.125,23.641-15.698,37.979-15.698c0.028,0,0.056,0,0.084,0&#10;&#9;&#9;&#9;&#9;&#9;&#9;c14.369,0.021,27.871,5.637,38.016,15.813c10.146,10.176,15.721,23.693,15.698,38.063&#10;&#9;&#9;&#9;&#9;&#9;&#9;c-0.021,14.369-5.637,27.869-15.813,38.015C1124.031,642.381,1110.546,647.955,1096.206,647.955z M1096.201,547.871&#10;&#9;&#9;&#9;&#9;&#9;&#9;c-12.336,0-23.939,4.796-32.678,13.509c-8.756,8.729-13.588,20.347-13.607,32.711c-0.037,25.522,20.697,46.318,46.221,46.357&#10;&#9;&#9;&#9;&#9;&#9;&#9;c0.023,0,0.047,0,0.069,0c12.339,0,23.942-4.796,32.681-13.509c8.756-8.73,13.589-20.347,13.607-32.711&#10;&#9;&#9;&#9;&#9;&#9;&#9;c0.018-12.365-4.779-23.995-13.509-32.75c-8.729-8.756-20.347-13.589-32.711-13.607l0,0&#10;&#9;&#9;&#9;&#9;&#9;&#9;C1096.249,547.871,1096.225,547.871,1096.201,547.871z"/>
				</g>
			</g>
			<g>
				<g>
					<g>
						
							<rect x="1020.265" y="538.508" transform="matrix(0.0015 -1 1 0.0015 453.4499 1592.194)" fill="#506FA6" width="7.506" height="61.048"/>
					</g>
					<g>
						
							<rect x="1020.19" y="588.55" transform="matrix(0.0015 -1 1 0.0015 403.3581 1642.1011)" fill="#506FA6" width="7.506" height="61.048"/>
					</g>
				</g>
			</g>
		</g>
		<g>
			<g>
				<path fill="#506FA6" d="M1087.309,793.943c-17.03-17.077-41.599-22.169-63.107-15.246c-2.6,0.831-5.138,1.846-7.631,3.031&#10;&#9;&#9;&#9;&#9;&#9;c-6.2,2.938-12,6.969-17.138,12.092c-5.246,5.231-9.353,11.169-12.323,17.507c-1.293,2.738-2.369,5.554-3.231,8.431&#10;&#9;&#9;&#9;&#9;&#9;c-6.43,21.2-1.277,45.168,15.415,61.937c11.723,11.738,27.323,18.23,43.907,18.261h0.107c16.554,0,32.138-6.446,43.861-18.138&#10;&#9;&#9;&#9;&#9;&#9;c11.754-11.723,18.246-27.307,18.261-43.907C1105.463,821.312,1099.017,805.696,1087.309,793.943z M1081.879,876.511&#10;&#9;&#9;&#9;&#9;&#9;c-10.323,10.277-24.016,15.938-38.584,15.938h-0.077c-14.585-0.031-28.308-5.723-38.6-16.061&#10;&#9;&#9;&#9;&#9;&#9;c-16.369-16.431-20.107-40.723-11.23-60.753c2.646-6,6.43-11.6,11.338-16.508c4.938-4.923,10.6-8.692,16.631-11.338&#10;&#9;&#9;&#9;&#9;&#9;c6.97-3.046,14.461-4.569,21.938-4.569c14.015,0,28.03,5.338,38.692,16.03c10.308,10.323,15.969,24.061,15.938,38.646&#10;&#9;&#9;&#9;&#9;&#9;C1097.909,852.496,1092.202,866.203,1081.879,876.511z"/>
			</g>
			<g>
				<g>
					<path fill="#506FA6" d="M1025.264,418.01l-1.323,1.292l-85.86,83.645l-5.246-5.385l83.49-81.322l0.923-0.892l-15.399-14.723&#10;&#9;&#9;&#9;&#9;&#9;&#9;l-14.584-15.338l-0.6,0.616l-81.845,83.568l-5.369-5.262l84.306-86.06l0.877-0.892l5.4,0.031l2.108,2.215&#10;&#9;&#9;&#9;&#9;&#9;&#9;c2.646,7.031,6.785,13.615,12.431,19.277c5.646,5.662,12.23,9.831,19.261,12.492l1.4,1.338L1025.264,418.01z"/>
				</g>
			</g>
			<g>
				<g>
					<path fill="#506FA6" d="M1024.726,779.205l-0.03,5.4l-3.339,3.185c-6.031,2.646-11.692,6.415-16.631,11.338&#10;&#9;&#9;&#9;&#9;&#9;&#9;c-4.908,4.908-8.692,10.508-11.338,16.508l-4.015,4.185l-5.4,0.031l-0.092-0.092l-84.814-87.122l5.369-5.231l82.199,84.414&#10;&#9;&#9;&#9;&#9;&#9;&#9;l0.477-0.492l14.276-14.923l15.308-14.554l-0.123-0.123l-84.03-82.352l5.246-5.354l86.414,84.676L1024.726,779.205z"/>
				</g>
			</g>
			<g>
				<path fill="#506FA6" d="M1087.248,316.335c-12.107-12.154-28.046-18.23-43.984-18.23c-15.892,0-31.769,6.031-43.891,18.107&#10;&#9;&#9;&#9;&#9;&#9;c-16.77,16.707-21.969,40.707-15.616,61.937c0.8,2.631,1.77,5.231,2.908,7.754c2.984,6.6,7.184,12.769,12.585,18.184&#10;&#9;&#9;&#9;&#9;&#9;c5.046,5.061,10.815,9.138,17.076,12.154c2.462,1.2,5,2.215,7.616,3.061c6.123,1.985,12.6,3.031,19.215,3.046h0.092&#10;&#9;&#9;&#9;&#9;&#9;c16.569,0,32.138-6.431,43.876-18.138C1111.386,380.027,1111.447,340.612,1087.248,316.335z M1081.818,398.903&#10;&#9;&#9;&#9;&#9;&#9;c-15.662,15.615-38.523,19.738-57.984,12.369c-7.031-2.661-13.615-6.831-19.261-12.492c-5.646-5.661-9.785-12.246-12.431-19.277&#10;&#9;&#9;&#9;&#9;&#9;c-7.323-19.492-3.138-42.353,12.538-57.984c21.323-21.261,55.984-21.215,77.261,0.123&#10;&#9;&#9;&#9;&#9;&#9;C1103.202,342.981,1103.156,377.626,1081.818,398.903z"/>
			</g>
		</g>
		<g>
			<path fill="#E03128" d="M792.168,570.647c-0.018,0-0.036,0-0.056,0c-9.916-0.014-19.232-3.887-26.232-10.906&#10;&#9;&#9;&#9;&#9;c-7-7.018-10.847-16.34-10.831-26.248c0.03-20.447,16.676-37.062,37.118-37.062c0.018,0,0.036,0,0.056,0&#10;&#9;&#9;&#9;&#9;c20.467,0.03,37.092,16.705,37.062,37.173C829.255,554.041,812.609,570.647,792.168,570.647z M792.168,503.937&#10;&#9;&#9;&#9;&#9;c-16.31,0-29.588,13.254-29.612,29.568c-0.012,7.903,3.056,15.338,8.639,20.936c5.584,5.598,13.018,8.688,20.93,8.7&#10;&#9;&#9;&#9;&#9;c0.014,0,0.03,0,0.044,0c16.31,0,29.588-13.245,29.612-29.549l3.753,0.006l-3.753-0.006c0.024-16.328-13.24-29.631-29.568-29.655&#10;&#9;&#9;&#9;&#9;C792.198,503.937,792.181,503.937,792.168,503.937z"/>
		</g>
		<g>
			<path fill="#E03128" d="M775.347,654.025c-0.011,0-0.021,0-0.032,0c-5.463-0.008-10.595-2.139-14.45-6.003&#10;&#9;&#9;&#9;&#9;c-3.855-3.863-5.973-8.996-5.964-14.453c0.008-5.455,2.141-10.583,6.008-14.433c3.858-3.845,8.984-5.96,14.433-5.96&#10;&#9;&#9;&#9;&#9;c0.012,0,0.023,0,0.035,0c5.454,0.008,10.58,2.139,14.433,6.004c3.852,3.864,5.97,8.996,5.961,14.451&#10;&#9;&#9;&#9;&#9;c-0.008,5.455-2.141,10.581-6.005,14.433C785.91,651.909,780.79,654.025,775.347,654.025z M775.344,620.681&#10;&#9;&#9;&#9;&#9;c-3.451,0-6.696,1.339-9.137,3.772c-2.444,2.435-3.794,5.676-3.799,9.127c-0.005,3.449,1.336,6.696,3.772,9.139&#10;&#9;&#9;&#9;&#9;c2.44,2.444,5.688,3.793,9.148,3.799c0.006,0,0.012,0,0.02,0c3.442,0,6.68-1.339,9.119-3.771c2.444-2.437,3.794-5.679,3.8-9.13&#10;&#9;&#9;&#9;&#9;c0.005-3.449-1.334-6.695-3.772-9.139c-2.437-2.444-5.679-3.792-9.128-3.798C775.359,620.681,775.352,620.681,775.344,620.681z"/>
		</g>
		<g>
			<path fill="#E03128" d="M842.11,620.779c-0.012,0-0.023,0-0.035,0c-11.262-0.016-20.411-9.202-20.395-20.476&#10;&#9;&#9;&#9;&#9;c0.008-5.454,2.141-10.58,6.005-14.433c3.857-3.845,8.977-5.961,14.42-5.961c0.01,0,0.021,0,0.032,0&#10;&#9;&#9;&#9;&#9;c5.463,0.008,10.595,2.139,14.45,6.003s5.975,8.996,5.966,14.453l0,0c-0.009,5.464-2.142,10.596-6.008,14.451&#10;&#9;&#9;&#9;&#9;C852.687,618.662,847.56,620.779,842.11,620.779z M842.105,587.414c-7.115,0-12.908,5.783-12.919,12.901&#10;&#9;&#9;&#9;&#9;c-0.01,7.135,5.777,12.948,12.901,12.958c0.006,0,0.013,0,0.021,0c7.124,0,12.927-5.792,12.939-12.92&#10;&#9;&#9;&#9;&#9;c0.004-3.449-1.336-6.695-3.774-9.139c-2.44-2.444-5.688-3.794-9.148-3.799C842.119,587.414,842.113,587.414,842.105,587.414z"/>
		</g>
		<g>
			<g>
				<path fill="#506FA6" d="M603.779,818.373c-0.8-2.631-1.769-5.231-2.908-7.754c-2.984-6.6-7.184-12.769-12.585-18.2&#10;&#9;&#9;&#9;&#9;&#9;c-5.107-5.123-10.892-9.169-17.077-12.123c-2.477-1.2-5.03-2.215-7.615-3.046c-6.262-2.046-12.785-3.061-19.307-3.061&#10;&#9;&#9;&#9;&#9;&#9;c-15.877,0-31.769,6.031-43.876,18.107c-11.753,11.723-18.23,27.307-18.261,43.907c-0.031,16.6,6.415,32.215,18.138,43.968&#10;&#9;&#9;&#9;&#9;&#9;c11.707,11.754,27.307,18.23,43.907,18.261h0.092c16.569,0,32.138-6.431,43.877-18.138&#10;&#9;&#9;&#9;&#9;&#9;C604.933,863.588,610.133,839.604,603.779,818.373z M582.856,874.988c-10.308,10.277-24.015,15.938-38.569,15.938h-0.077&#10;&#9;&#9;&#9;&#9;&#9;c-14.6-0.015-28.307-5.723-38.615-16.061c-21.261-21.323-21.215-55.984,0.123-77.26c15.646-15.6,38.476-19.723,57.938-12.384&#10;&#9;&#9;&#9;&#9;&#9;c7.046,2.661,13.661,6.831,19.323,12.508c5.646,5.661,9.8,12.277,12.431,19.323&#10;&#9;&#9;&#9;&#9;&#9;C602.718,836.527,598.533,859.357,582.856,874.988z"/>
			</g>
			<g>
				<g>
					<polygon fill="#506FA6" points="568.626,406.441 562.857,411.918 562.81,416.687 562.81,417.334 615.994,469.44 &#10;&#9;&#9;&#9;&#9;&#9;&#9;621.394,474.733 649.747,502.517 655.009,497.148 570.841,414.688 572.995,412.641 586.148,400.134 600.579,385.042 &#10;&#9;&#9;&#9;&#9;&#9;&#9;600.887,384.719 683.101,469.133 688.47,463.902 660.763,435.456 655.501,430.041 603.902,377.057 603.548,376.688 &#10;&#9;&#9;&#9;&#9;&#9;&#9;598.148,376.719 594.333,380.703 &#9;&#9;&#9;&#9;&#9;"/>
				</g>
			</g>
			<g>
				<g>
					<path fill="#506FA6" d="M688.085,732.328l-84.306,86.045l-0.892,0.908l-5.4-0.046l-2.076-2.184&#10;&#9;&#9;&#9;&#9;&#9;&#9;c-2.631-7.046-6.785-13.661-12.431-19.323c-5.662-5.677-12.277-9.846-19.323-12.508l-1.354-1.292l-0.031-5.4l1.323-1.277&#10;&#9;&#9;&#9;&#9;&#9;&#9;l85.875-83.66l5.231,5.385l-83.492,81.322l-0.922,0.892l15.399,14.723l14.569,15.338l0.615-0.631l81.845-83.552&#10;&#9;&#9;&#9;&#9;&#9;&#9;L688.085,732.328z"/>
				</g>
			</g>
			<g>
				<path fill="#506FA6" d="M545.005,419.281c-15.943,0-31.883-6.08-44.003-18.234c-24.19-24.263-24.131-63.683,0.131-87.873&#10;&#9;&#9;&#9;&#9;&#9;c11.731-11.696,27.307-18.135,43.868-18.135c0.033,0,0.063,0,0.096,0c16.597,0.026,32.19,6.511,43.909,18.264&#10;&#9;&#9;&#9;&#9;&#9;s18.159,27.366,18.134,43.964c-0.024,16.597-6.51,32.19-18.263,43.909C576.769,413.248,560.885,419.281,545.005,419.281z&#10;&#9;&#9;&#9;&#9;&#9; M594.333,380.703c0.015-0.015,0.015-0.015,0.015-0.015c3.446-7.231,5.277-15.184,5.292-23.43&#10;&#9;&#9;&#9;&#9;&#9;c0.015-14.6-5.646-28.323-15.954-38.661c-10.307-10.323-24.015-16.031-38.599-16.046c-0.031,0-0.062,0-0.092,0&#10;&#9;&#9;&#9;&#9;&#9;c-14.554,0-28.246,5.661-38.569,15.938c-21.323,21.261-21.384,55.922-0.108,77.26c16.8,16.846,41.953,20.415,62.307,10.692&#10;&#9;&#9;&#9;&#9;&#9;c0-0.015,0.015-0.015,0.015-0.015L594.333,380.703z"/>
			</g>
		</g>
	</g>
	<g>
		<g>
			<path fill="#506FA6" d="M240.762,593.169c-11.036-10.093-24.632-16.684-39.317-19.059c-6.082-0.986-12.444-1.239-18.488-0.744&#10;&#9;&#9;&#9;&#9;c-15.129,1.197-29.418,6.813-41.332,16.244l-3.726-4.708c12.848-10.171,28.263-16.23,44.576-17.521&#10;&#9;&#9;&#9;&#9;c6.504-0.536,13.376-0.261,19.931,0.801c15.843,2.563,30.509,9.671,42.411,20.556L240.762,593.169z"/>
		</g>
		<g>
			<path fill="#506FA6" d="M124.446,701.067c-9.157-11.493-15.075-25.238-17.115-39.753c-0.541-3.827-0.814-7.74-0.813-11.628&#10;&#9;&#9;&#9;&#9;c0.002-18.795,6.158-36.503,17.802-51.21l4.708,3.729c-10.796,13.634-16.502,30.054-16.504,47.483&#10;&#9;&#9;&#9;&#9;c-0.002,3.609,0.251,7.238,0.753,10.79c1.891,13.452,7.378,26.194,15.865,36.849L124.446,701.067z"/>
		</g>
		<g>
			<path fill="#506FA6" d="M189.104,732.276c-0.006,0-0.008,0-0.012,0c-2.219,0-4.455-0.092-6.645-0.27&#10;&#9;&#9;&#9;&#9;c-16.218-1.286-31.573-7.302-44.394-17.393l3.714-4.72c11.888,9.358,26.122,14.934,41.162,16.128&#10;&#9;&#9;&#9;&#9;c2.034,0.165,4.106,0.249,6.163,0.249c0.003,0,0.008,0,0.012,0c19.091,0,37.378-7.067,51.491-19.901l4.041,4.444&#10;&#9;&#9;&#9;&#9;C229.414,724.653,209.691,732.276,189.104,732.276z"/>
		</g>
		<g>
			<path fill="#506FA6" d="M257.196,696.416l-4.949-3.404c8.783-12.766,13.425-27.74,13.427-43.303&#10;&#9;&#9;&#9;&#9;c0.001-15.497-4.594-30.416-13.293-43.141l4.958-3.389c9.384,13.729,14.343,29.819,14.342,46.53&#10;&#9;&#9;&#9;&#9;C271.679,666.493,266.67,682.644,257.196,696.416z"/>
		</g>
		<g>
			<g>
				<path fill="#506FA6" d="M192.289,790.399c-0.001,0-0.001,0-0.003,0c-12.25-0.003-22.216-9.97-22.214-22.22&#10;&#9;&#9;&#9;&#9;&#9;c0.003-12.249,9.968-22.214,22.217-22.214c0.002,0,0.002,0,0.003,0c12.25,0.003,22.216,9.97,22.214,22.22&#10;&#9;&#9;&#9;&#9;&#9;C214.503,780.433,204.538,790.399,192.289,790.399z M192.289,751.971c-8.938,0-16.211,7.27-16.211,16.208&#10;&#9;&#9;&#9;&#9;&#9;c-0.002,8.939,7.27,16.214,16.208,16.214c0.001,0,0.001,0,0.003,0c8.938,0,16.211-7.27,16.211-16.208h3.003h-3.003&#10;&#9;&#9;&#9;&#9;&#9;c0.001-8.939-7.27-16.214-16.208-16.214C192.29,751.971,192.29,751.971,192.289,751.971z"/>
			</g>
			<g>
				<g>
					<g>
						<rect x="198.896" y="728.732" fill="#506FA6" width="6.007" height="23.439"/>
					</g>
					<g>
						<rect x="179.682" y="728.729" fill="#506FA6" width="6.007" height="23.44"/>
					</g>
				</g>
			</g>
		</g>
		<g>
			<g>
				<path fill="#506FA6" d="M192.32,555.056c-0.001,0-0.001,0-0.003,0c-12.25-0.003-22.216-9.97-22.214-22.219h3.003h-3.003&#10;&#9;&#9;&#9;&#9;&#9;c0.001-5.936,2.312-11.514,6.51-15.71c4.195-4.195,9.773-6.505,15.706-6.505c0.001,0,0.003,0,0.003,0&#10;&#9;&#9;&#9;&#9;&#9;c5.936,0.001,11.514,2.314,15.71,6.51c4.196,4.198,6.505,9.776,6.505,15.71C214.535,545.09,204.569,555.054,192.32,555.056z&#10;&#9;&#9;&#9;&#9;&#9; M192.319,516.628c-4.33,0-8.398,1.684-11.46,4.746c-3.062,3.062-4.749,7.133-4.749,11.463&#10;&#9;&#9;&#9;&#9;&#9;c-0.002,8.939,7.27,16.212,16.208,16.212c0.002,0,0.002,0,0.003,0c8.938,0.002,16.211-7.27,16.211-16.208&#10;&#9;&#9;&#9;&#9;&#9;c0.001-4.33-1.684-8.401-4.746-11.465c-3.062-3.062-7.133-4.749-11.463-4.749C192.32,516.628,192.319,516.628,192.319,516.628z"/>
			</g>
			<g>
				<g>
					<g>
						<rect x="179.706" y="548.849" fill="#506FA6" width="6.007" height="23.44"/>
					</g>
					<g>
						<rect x="198.92" y="548.852" fill="#506FA6" width="6.007" height="23.439"/>
					</g>
				</g>
			</g>
		</g>
		<g>
			<g>
				<g>
					<g>
						<rect x="88.228" y="657.887" fill="#506FA6" width="22.896" height="6.007"/>
					</g>
					<g>
						<rect x="88.23" y="638.673" fill="#506FA6" width="20.724" height="6.007"/>
					</g>
				</g>
				<g>
					<path fill="#506FA6" d="M72.214,673.499c-12.25-0.003-22.216-9.97-22.214-22.22c0.003-12.25,9.97-22.216,22.22-22.216l0,0&#10;&#9;&#9;&#9;&#9;&#9;&#9;c12.25,0.003,22.216,9.97,22.214,22.22C94.431,663.533,84.465,673.499,72.214,673.499z M72.22,635.069&#10;&#9;&#9;&#9;&#9;&#9;&#9;c-8.939,0-16.214,7.272-16.214,16.209c-0.002,8.939,7.27,16.214,16.208,16.214c8.939,0,16.214-7.271,16.214-16.209&#10;&#9;&#9;&#9;&#9;&#9;&#9;C88.429,642.344,81.158,635.069,72.22,635.069L72.22,635.069z"/>
				</g>
				<g>
					<path fill="#506FA6" d="M309.19,670.327c-0.002,0-0.003,0-0.003,0c-12.25-0.003-22.216-9.97-22.216-22.22&#10;&#9;&#9;&#9;&#9;&#9;&#9;c0.003-12.249,9.97-22.214,22.217-22.214c0.002,0,0.002,0,0.003,0c12.25,0.003,22.216,9.97,22.214,22.219&#10;&#9;&#9;&#9;&#9;&#9;&#9;c0,5.934-2.312,11.514-6.508,15.71C320.702,668.016,315.123,670.327,309.19,670.327z M309.189,631.899&#10;&#9;&#9;&#9;&#9;&#9;&#9;c-8.938,0-16.211,7.27-16.211,16.208c0,8.939,7.272,16.214,16.209,16.214c0.001,0,0.003,0,0.003,0&#10;&#9;&#9;&#9;&#9;&#9;&#9;c4.33,0,8.4-1.686,11.462-4.746c3.062-3.062,4.748-7.133,4.748-11.463c0.001-8.939-7.27-16.212-16.208-16.212&#10;&#9;&#9;&#9;&#9;&#9;&#9;C309.19,631.899,309.19,631.899,309.189,631.899z"/>
				</g>
			</g>
			<g>
				<g>
					<g>
						<rect x="269.739" y="635.496" fill="#506FA6" width="23.44" height="6.007"/>
					</g>
					<g>
						<rect x="269.738" y="654.71" fill="#506FA6" width="23.439" height="6.007"/>
					</g>
				</g>
			</g>
		</g>
		<g>
			<g>
				<path fill="#506FA6" d="M289.891,767.994c-0.002,0-0.003,0-0.005,0c-6.789,0-13.171-2.646-17.971-7.447&#10;&#9;&#9;&#9;&#9;&#9;c-4.802-4.802-7.444-11.184-7.443-17.974c0-6.789,2.646-13.171,7.447-17.971c9.913-9.913,26.038-9.91,35.947,0.003l0,0&#10;&#9;&#9;&#9;&#9;&#9;c9.91,9.913,9.907,26.038-0.005,35.947C303.061,765.351,296.679,767.994,289.891,767.994z M289.891,723.172&#10;&#9;&#9;&#9;&#9;&#9;c-4.97,0-9.941,1.891-13.726,5.674c-3.667,3.667-5.688,8.541-5.688,13.727c-0.001,5.185,2.018,10.06,5.684,13.727&#10;&#9;&#9;&#9;&#9;&#9;c3.667,3.667,8.541,5.688,13.727,5.688c0,0,0.001,0,0.003,0c5.185,0,10.058-2.018,13.726-5.683&#10;&#9;&#9;&#9;&#9;&#9;c7.569-7.569,7.572-19.885,0.005-27.456C299.835,725.063,294.864,723.172,289.891,723.172z"/>
			</g>
			<g>
				<g>
					<polygon fill="#506FA6" points="249.517,614.285 245.323,609.989 276.529,579.508 271.829,575.025 267.241,570.216 &#10;&#9;&#9;&#9;&#9;&#9;&#9;236.759,601.424 232.462,597.226 265.118,563.793 269.44,563.82 276.077,570.781 282.926,577.31 282.951,581.631 &#9;&#9;&#9;&#9;&#9;"/>
				</g>
			</g>
			<g>
				<g>
					<polygon fill="#506FA6" points="265.096,735.912 232.447,702.471 236.747,698.276 267.218,729.491 271.711,724.784 &#10;&#9;&#9;&#9;&#9;&#9;&#9;276.512,720.203 245.311,689.712 249.508,685.419 282.933,718.08 282.906,722.401 275.955,729.03 269.416,735.888 &#9;&#9;&#9;&#9;&#9;"/>
				</g>
			</g>
			<g>
				<path fill="#506FA6" d="M289.915,582.259c-0.001,0-0.003,0-0.004,0c-6.789,0-13.171-2.646-17.971-7.447&#10;&#9;&#9;&#9;&#9;&#9;c-4.802-4.802-7.444-11.185-7.443-17.974c0-6.791,2.646-13.173,7.447-17.973c9.91-9.91,26.038-9.91,35.947,0.005&#10;&#9;&#9;&#9;&#9;&#9;c4.802,4.802,7.444,11.185,7.443,17.976c0,6.789-2.646,13.171-7.447,17.971C303.085,579.616,296.703,582.259,289.915,582.259z&#10;&#9;&#9;&#9;&#9;&#9; M289.915,537.436c-4.971,0-9.941,1.891-13.726,5.674c-3.667,3.667-5.688,8.543-5.688,13.727&#10;&#9;&#9;&#9;&#9;&#9;c-0.002,5.186,2.018,10.061,5.684,13.729c3.667,3.667,8.541,5.688,13.727,5.688c0,0,0.001,0,0.003,0&#10;&#9;&#9;&#9;&#9;&#9;c5.185,0,10.058-2.018,13.726-5.684c3.667-3.667,5.688-8.541,5.688-13.727c0.001-5.186-2.018-10.061-5.684-13.729&#10;&#9;&#9;&#9;&#9;&#9;C299.859,539.329,294.886,537.436,289.915,537.436z"/>
			</g>
		</g>
		<g>
			<g>
				<path fill="#E03128" d="M192.42,640.802c-4.225-0.002-8.195-1.647-11.182-4.632c-2.987-2.987-4.63-6.956-4.63-11.176&#10;&#9;&#9;&#9;&#9;&#9;c0-4.225,1.645-8.197,4.632-11.182c2.987-2.985,6.958-4.63,11.181-4.63c0.002,0,0.003,0,0.003,0&#10;&#9;&#9;&#9;&#9;&#9;c8.718,0.003,15.813,7.097,15.813,15.816l0,0C208.232,633.713,201.138,640.802,192.42,640.802z M192.42,615.188&#10;&#9;&#9;&#9;&#9;&#9;c-2.62,0-5.083,1.019-6.935,2.87c-1.851,1.852-2.871,4.316-2.871,6.936c-0.002,2.617,1.019,5.078,2.87,6.929&#10;&#9;&#9;&#9;&#9;&#9;c1.852,1.852,4.316,2.873,6.936,2.873c5.409,0,9.809-4.396,9.809-9.799c0-5.409-4.399-9.809-9.806-9.809&#10;&#9;&#9;&#9;&#9;&#9;C192.421,615.188,192.421,615.188,192.42,615.188z"/>
			</g>
			<g>
				<path fill="#E03128" d="M186.013,672.824c-5.189,0-9.412-4.219-9.412-9.405c0.003-5.186,4.226-9.405,9.414-9.405&#10;&#9;&#9;&#9;&#9;&#9;c2.513,0.002,4.874,0.981,6.65,2.757c1.777,1.777,2.754,4.139,2.754,6.651C195.417,668.607,191.198,672.824,186.013,672.824z&#10;&#9;&#9;&#9;&#9;&#9; M186.013,660.021c-1.876,0-3.406,1.525-3.406,3.4c0,1.872,1.528,3.397,3.406,3.397c1.873,0,3.398-1.523,3.398-3.397v-0.001&#10;&#9;&#9;&#9;&#9;&#9;c0.001-0.907-0.353-1.761-0.995-2.402C187.776,660.374,186.922,660.021,186.013,660.021z"/>
			</g>
			<g>
				<path fill="#E03128" d="M211.629,660.025c-5.188-0.003-9.405-4.226-9.403-9.415c0-2.51,0.98-4.872,2.755-6.648&#10;&#9;&#9;&#9;&#9;&#9;c1.776-1.776,4.136-2.754,6.647-2.754c0.001,0,0.003,0,0.005,0c5.188,0,9.411,4.219,9.411,9.405v0.001&#10;&#9;&#9;&#9;&#9;&#9;C221.04,655.804,216.817,660.025,211.629,660.025z M211.629,647.215c-0.907,0-1.761,0.353-2.402,0.995&#10;&#9;&#9;&#9;&#9;&#9;c-0.642,0.641-0.995,1.495-0.995,2.402c-0.001,1.879,1.523,3.407,3.398,3.407c1.876,0,3.406-1.528,3.406-3.407&#10;&#9;&#9;&#9;&#9;&#9;c0-1.873-1.528-3.397-3.406-3.397H211.629z"/>
			</g>
		</g>
		<g>
			<g>
				<path fill="#506FA6" d="M96.222,767.968c-0.002,0-0.002,0-0.003,0c-6.791,0-13.173-2.646-17.973-7.447&#10;&#9;&#9;&#9;&#9;&#9;c-4.802-4.802-7.444-11.184-7.443-17.974c0.002-6.789,2.646-13.171,7.447-17.971l0,0c9.911-9.907,26.039-9.91,35.947,0.003&#10;&#9;&#9;&#9;&#9;&#9;c4.802,4.802,7.444,11.185,7.443,17.976c0,6.789-2.646,13.171-7.447,17.971C109.394,765.326,103.011,767.968,96.222,767.968z&#10;&#9;&#9;&#9;&#9;&#9; M82.496,728.821c-3.667,3.667-5.687,8.543-5.688,13.727c0,5.185,2.018,10.06,5.683,13.727&#10;&#9;&#9;&#9;&#9;&#9;c3.667,3.667,8.543,5.688,13.727,5.688c0.002,0,0.003,0,0.003,0c5.185,0,10.058-2.018,13.726-5.684&#10;&#9;&#9;&#9;&#9;&#9;c3.667-3.667,5.688-8.541,5.688-13.727c0.002-5.186-2.018-10.061-5.684-13.729C102.383,721.255,90.068,721.255,82.496,728.821&#10;&#9;&#9;&#9;&#9;&#9;L82.496,728.821z"/>
			</g>
			<g>
				<g>
					<polygon fill="#506FA6" points="136.63,614.27 103.205,581.609 103.232,577.288 110.184,570.659 116.712,563.801 &#10;&#9;&#9;&#9;&#9;&#9;&#9;121.034,563.775 153.69,597.215 149.393,601.413 118.913,570.198 114.43,574.904 109.626,579.486 140.828,609.977 &#9;&#9;&#9;&#9;&#9;"/>
				</g>
			</g>
			<g>
				<g>
					<polygon fill="#506FA6" points="121.013,735.894 116.691,735.865 110.062,728.906 103.213,722.377 103.187,718.056 &#10;&#9;&#9;&#9;&#9;&#9;&#9;136.621,685.402 140.816,689.699 109.61,720.179 114.309,724.664 118.892,729.471 149.379,698.264 153.676,702.461 &#9;&#9;&#9;&#9;&#9;"/>
				</g>
			</g>
			<g>
				<path fill="#506FA6" d="M96.248,582.234c-0.002,0-0.003,0-0.005,0c-6.789,0-13.171-2.646-17.971-7.447&#10;&#9;&#9;&#9;&#9;&#9;c-9.91-9.911-9.908-26.036,0.003-35.947c9.911-9.91,26.039-9.91,35.947,0.005l0,0c4.802,4.802,7.444,11.185,7.443,17.976&#10;&#9;&#9;&#9;&#9;&#9;c0,6.789-2.646,13.171-7.447,17.971C109.418,579.591,103.035,582.234,96.248,582.234z M96.246,537.41&#10;&#9;&#9;&#9;&#9;&#9;c-4.971,0-9.941,1.891-13.726,5.674c-7.569,7.57-7.57,19.887-0.003,27.456c3.667,3.667,8.541,5.688,13.727,5.688&#10;&#9;&#9;&#9;&#9;&#9;c0,0,0.001,0,0.003,0c5.185,0,10.057-2.018,13.724-5.683c3.667-3.667,5.688-8.541,5.688-13.727&#10;&#9;&#9;&#9;&#9;&#9;c0.002-5.186-2.018-10.061-5.684-13.729C106.19,539.305,101.218,537.41,96.246,537.41z"/>
			</g>
		</g>
	</g>
	<g>
		<g>
			<g>
				<path fill="#E03128" d="M325.577,323.186c-0.001,0-0.003,0-0.005,0c-5.042,0-9.145-4.101-9.145-9.142&#10;&#9;&#9;&#9;&#9;&#9;c0.002-5.043,4.106-9.146,9.148-9.146c2.444,0.001,4.741,0.953,6.468,2.68c1.728,1.728,2.677,4.025,2.677,6.468c0,0,0,0,0,0.002&#10;&#9;&#9;&#9;&#9;&#9;c0,2.441-0.953,4.737-2.68,6.463C330.314,322.235,328.018,323.186,325.577,323.186z M325.574,309.513&#10;&#9;&#9;&#9;&#9;&#9;c-2.497,0-4.53,2.033-4.531,4.533c0,2.494,2.033,4.525,4.531,4.525h0.002c1.211,0,2.348-0.47,3.203-1.325s1.327-1.991,1.327-3.2&#10;&#9;&#9;&#9;&#9;&#9;v-0.001c0-1.209-0.47-2.348-1.325-3.203C327.924,309.984,326.786,309.513,325.574,309.513z"/>
			</g>
			<g>
				<path fill="#E03128" d="M321.968,339.686c0,1.927-1.564,3.49-3.49,3.489c-1.931,0-3.494-1.563-3.493-3.49&#10;&#9;&#9;&#9;&#9;&#9;s1.563-3.49,3.494-3.489C320.406,336.196,321.969,337.759,321.968,339.686z"/>
			</g>
			<g>
				<path fill="#E03128" d="M343.183,334.729c0,2.222-1.799,4.02-4.021,4.02c-2.217,0-4.015-1.799-4.015-4.021&#10;&#9;&#9;&#9;&#9;&#9;c0-2.217,1.799-4.015,4.016-4.015C341.385,330.713,343.183,332.512,343.183,334.729z"/>
				<path fill="#E03128" d="M339.161,340.287c-3.062,0-5.553-2.494-5.553-5.559c0-3.063,2.491-5.554,5.554-5.554&#10;&#9;&#9;&#9;&#9;&#9;c3.065,0,5.559,2.491,5.559,5.554C344.722,337.794,342.228,340.287,339.161,340.287z M339.163,332.251&#10;&#9;&#9;&#9;&#9;&#9;c-1.366,0-2.477,1.112-2.477,2.477c0,1.369,1.11,2.482,2.476,2.482c1.369,0,2.483-1.113,2.483-2.482&#10;&#9;&#9;&#9;&#9;&#9;C341.645,333.363,340.532,332.251,339.163,332.251z"/>
			</g>
		</g>
		<g>
			<g>
				<path fill="#506FA6" d="M351.15,297.758c-6.152-5.626-13.732-9.3-21.918-10.625c-3.404-0.55-6.932-0.69-10.308-0.415&#10;&#9;&#9;&#9;&#9;&#9;c-8.437,0.669-16.404,3.799-23.045,9.055l-3.726-4.708c7.577-5.997,16.667-9.57,26.289-10.332&#10;&#9;&#9;&#9;&#9;&#9;c3.834-0.312,7.866-0.155,11.749,0.472c9.345,1.511,17.994,5.703,25.013,12.121L351.15,297.758z"/>
			</g>
			<g>
				<path fill="#506FA6" d="M284.222,359.569c-5.4-6.777-8.89-14.884-10.093-23.446c-0.319-2.249-0.481-4.555-0.481-6.854&#10;&#9;&#9;&#9;&#9;&#9;c0.002-11.085,3.633-21.528,10.499-30.201l4.708,3.729c-6.019,7.601-9.199,16.756-9.201,26.472c0,2.018,0.141,4.041,0.421,6.016&#10;&#9;&#9;&#9;&#9;&#9;c1.055,7.501,4.112,14.605,8.843,20.544L284.222,359.569z"/>
			</g>
			<g>
				<path fill="#506FA6" d="M322.35,377.972c-0.003,0-0.005,0-0.006,0c-1.313,0-2.632-0.054-3.921-0.159&#10;&#9;&#9;&#9;&#9;&#9;c-9.56-0.759-18.615-4.306-26.177-10.257l3.714-4.72c6.629,5.216,14.564,8.326,22.946,8.992c1.134,0.092,2.29,0.138,3.439,0.138&#10;&#9;&#9;&#9;&#9;&#9;c0.001,0,0.005,0,0.006,0c10.644,0,20.84-3.939,28.707-11.095l4.041,4.444C346.122,373.477,334.492,377.972,322.35,377.972z"/>
			</g>
			<g>
				<path fill="#506FA6" d="M362.504,356.826l-4.949-3.404c4.896-7.115,7.483-15.464,7.485-24.14&#10;&#9;&#9;&#9;&#9;&#9;c0.001-8.64-2.562-16.956-7.411-24.05l4.958-3.389c5.536,8.096,8.461,17.585,8.46,27.439&#10;&#9;&#9;&#9;&#9;&#9;C371.045,339.179,368.09,348.704,362.504,356.826z"/>
			</g>
			<g>
				<g>
					<path fill="#506FA6" d="M324.178,411.347c-3.75-0.002-7.275-1.462-9.925-4.114c-2.652-2.652-4.111-6.176-4.111-9.925&#10;&#9;&#9;&#9;&#9;&#9;&#9;c0.002-3.75,1.462-7.275,4.114-9.925c2.65-2.649,6.175-4.109,9.922-4.109c0.001,0,0.003,0,0.003,0&#10;&#9;&#9;&#9;&#9;&#9;&#9;c3.748,0,7.273,1.46,9.923,4.112c2.652,2.652,4.111,6.176,4.111,9.925l0,0l0,0&#10;&#9;&#9;&#9;&#9;&#9;&#9;C338.213,405.051,331.917,411.347,324.178,411.347z M324.18,389.282c-2.145,0-4.162,0.834-5.677,2.35&#10;&#9;&#9;&#9;&#9;&#9;&#9;c-1.517,1.516-2.353,3.534-2.353,5.677c-0.001,2.145,0.834,4.162,2.351,5.679c1.516,1.517,3.532,2.353,5.677,2.353&#10;&#9;&#9;&#9;&#9;&#9;&#9;c4.427,0,8.03-3.601,8.03-8.029l0,0c0.001-2.145-0.834-4.162-2.35-5.679c-1.517-1.516-3.534-2.351-5.677-2.351H324.18z"/>
				</g>
				<g>
					<g>
						<g>
							<rect x="326.695" y="374.657" fill="#506FA6" width="6.007" height="13.46"/>
						</g>
						<g>
							<rect x="315.662" y="374.656" fill="#506FA6" width="6.007" height="13.46"/>
						</g>
					</g>
				</g>
			</g>
			<g>
				<g>
					<path fill="#506FA6" d="M324.199,276.208c-0.001,0-0.003,0-0.003,0c-3.75,0-7.275-1.46-9.925-4.112&#10;&#9;&#9;&#9;&#9;&#9;&#9;c-2.652-2.65-4.111-6.176-4.111-9.925l0,0l0,0c0.001-7.739,6.298-14.035,14.037-14.035c3.75,0.001,7.275,1.462,9.925,4.114&#10;&#9;&#9;&#9;&#9;&#9;&#9;c2.652,2.652,4.111,6.176,4.111,9.925c0,3.75-1.46,7.275-4.112,9.925C331.469,274.748,327.946,276.208,324.199,276.208z&#10;&#9;&#9;&#9;&#9;&#9;&#9; M324.198,254.143c-4.428,0-8.03,3.601-8.03,8.029l0,0c-0.002,2.145,0.834,4.162,2.35,5.679&#10;&#9;&#9;&#9;&#9;&#9;&#9;c1.517,1.516,3.534,2.351,5.679,2.351h0.002c2.145,0,4.16-0.834,5.677-2.35c1.516-1.516,2.351-3.532,2.351-5.677&#10;&#9;&#9;&#9;&#9;&#9;&#9;c0.001-2.145-0.834-4.162-2.351-5.679C328.359,254.978,326.343,254.143,324.198,254.143z"/>
				</g>
				<g>
					<g>
						<g>
							<rect x="315.675" y="271.366" fill="#506FA6" width="6.007" height="13.46"/>
						</g>
						<g>
							<rect x="326.708" y="271.367" fill="#506FA6" width="6.007" height="13.46"/>
						</g>
					</g>
				</g>
			</g>
			<g>
				<g>
					<g>
						<g>
							<rect x="264.426" y="332.7" fill="#506FA6" width="13.147" height="6.007"/>
						</g>
						<g>
							<rect x="264.427" y="321.666" fill="#506FA6" width="11.899" height="6.007"/>
						</g>
					</g>
					<g>
						<path fill="#506FA6" d="M255.229,344.221c-7.74-0.003-14.035-6.299-14.034-14.038c0-7.739,6.296-14.035,14.037-14.035l0,0&#10;&#9;&#9;&#9;&#9;&#9;&#9;&#9;c3.75,0.001,7.275,1.462,9.925,4.114c2.652,2.652,4.111,6.176,4.111,9.925C269.268,337.924,262.97,344.221,255.229,344.221z&#10;&#9;&#9;&#9;&#9;&#9;&#9;&#9; M255.232,322.154c-4.428,0-8.03,3.601-8.03,8.029c-0.002,4.428,3.6,8.032,8.027,8.032c4.429,0,8.032-3.601,8.032-8.029&#10;&#9;&#9;&#9;&#9;&#9;&#9;&#9;c0.002-2.145-0.834-4.162-2.351-5.679C259.394,322.989,257.378,322.154,255.232,322.154z"/>
					</g>
					<g>
						<path fill="#506FA6" d="M391.304,342.4c-7.739-0.003-14.035-6.299-14.035-14.038c0.003-7.739,6.299-14.035,14.038-14.035l0,0&#10;&#9;&#9;&#9;&#9;&#9;&#9;&#9;c7.739,0.003,14.035,6.299,14.035,14.038C405.34,336.103,399.043,342.4,391.304,342.4z M391.307,320.333&#10;&#9;&#9;&#9;&#9;&#9;&#9;&#9;c-4.428,0-8.032,3.603-8.032,8.029c0,4.427,3.601,8.032,8.029,8.032c4.428,0,8.032-3.601,8.032-8.029&#10;&#9;&#9;&#9;&#9;&#9;&#9;&#9;S395.735,320.333,391.307,320.333L391.307,320.333z"/>
					</g>
				</g>
				<g>
					<g>
						<g>
							<rect x="368.653" y="319.841" fill="#506FA6" width="13.46" height="6.007"/>
						</g>
						<g>
							<rect x="368.652" y="330.874" fill="#506FA6" width="13.46" height="6.007"/>
						</g>
					</g>
				</g>
			</g>
			<g>
				<g>
					<path fill="#506FA6" d="M380.224,398.475c-4.065,0-8.131-1.547-11.226-4.644c-6.19-6.188-6.188-16.26,0.001-22.45&#10;&#9;&#9;&#9;&#9;&#9;&#9;c6.19-6.187,16.26-6.187,22.45,0.003l0,0c6.188,6.19,6.187,16.26-0.003,22.45C388.354,396.927,384.288,398.475,380.224,398.475&#10;&#9;&#9;&#9;&#9;&#9;&#9;z M380.223,372.743c-2.527,0-5.052,0.962-6.977,2.885c-3.848,3.848-3.849,10.11-0.001,13.957&#10;&#9;&#9;&#9;&#9;&#9;&#9;c1.864,1.864,4.342,2.891,6.979,2.891h0.001c2.635,0,5.113-1.025,6.977-2.888c3.848-3.849,3.849-10.111,0.003-13.959&#10;&#9;&#9;&#9;&#9;&#9;&#9;C385.28,373.706,382.751,372.743,380.223,372.743z"/>
				</g>
				<g>
					<g>
						<polygon fill="#506FA6" points="357.934,309.855 353.739,305.558 370.711,288.981 368.972,287.321 367.208,285.475 &#10;&#9;&#9;&#9;&#9;&#9;&#9;&#9;350.629,302.449 346.332,298.251 365.085,279.053 369.407,279.081 373.217,283.077 377.107,286.783 377.134,291.104 &#9;&#9;&#9;&#9;&#9;&#9;"/>
					</g>
				</g>
				<g>
					<g>
						<polygon fill="#506FA6" points="365.071,379.674 346.325,360.472 350.622,356.277 367.194,373.253 368.859,371.508 &#10;&#9;&#9;&#9;&#9;&#9;&#9;&#9;370.701,369.749 353.731,353.166 357.929,348.872 377.122,367.628 377.095,371.947 373.103,375.754 369.392,379.65 &#9;&#9;&#9;&#9;&#9;&#9;"/>
					</g>
				</g>
				<g>
					<path fill="#506FA6" d="M380.238,291.83c-0.001,0-0.001,0-0.003,0c-4.24-0.001-8.226-1.653-11.223-4.651&#10;&#9;&#9;&#9;&#9;&#9;&#9;c-6.19-6.19-6.188-16.262,0.003-22.45c6.191-6.188,16.26-6.188,22.449,0.003c2.999,2.999,4.648,6.985,4.648,11.226&#10;&#9;&#9;&#9;&#9;&#9;&#9;c0,4.24-1.653,8.226-4.651,11.224C388.463,290.179,384.478,291.83,380.238,291.83z M371.138,266.851l2.123,2.123&#10;&#9;&#9;&#9;&#9;&#9;&#9;c-3.849,3.849-3.851,10.109-0.003,13.959c1.864,1.864,4.342,2.891,6.979,2.891c0,0,0,0,0.001,0&#10;&#9;&#9;&#9;&#9;&#9;&#9;c2.635,0,5.113-1.026,6.977-2.889c1.864-1.864,2.892-4.342,2.892-6.979c0-2.635-1.026-5.114-2.889-6.979&#10;&#9;&#9;&#9;&#9;&#9;&#9;c-1.864-1.864-4.342-2.891-6.979-2.891h-0.002c-2.635,0-5.113,1.025-6.977,2.888L371.138,266.851z"/>
				</g>
			</g>
			<g>
				<g>
					<path fill="#506FA6" d="M269.017,398.46c-4.067,0-8.132-1.547-11.227-4.644c-6.188-6.19-6.187-16.26,0.003-22.449&#10;&#9;&#9;&#9;&#9;&#9;&#9;c6.187-6.19,16.26-6.191,22.45,0.001c6.188,6.191,6.187,16.262-0.003,22.45C277.145,396.912,273.081,398.46,269.017,398.46z&#10;&#9;&#9;&#9;&#9;&#9;&#9; M269.017,372.728c-2.527,0-5.054,0.962-6.979,2.885l0,0c-1.864,1.864-2.891,4.342-2.891,6.979&#10;&#9;&#9;&#9;&#9;&#9;&#9;c-0.001,2.637,1.025,5.114,2.888,6.979c3.849,3.848,10.109,3.851,13.959,0.003c3.848-3.848,3.849-10.11,0.002-13.959&#10;&#9;&#9;&#9;&#9;&#9;&#9;C274.072,373.69,271.544,372.728,269.017,372.728z"/>
				</g>
				<g>
					<g>
						<polygon fill="#506FA6" points="291.326,309.846 272.131,291.091 272.158,286.768 276.152,282.963 279.857,279.07 &#10;&#9;&#9;&#9;&#9;&#9;&#9;&#9;284.179,279.044 302.93,298.245 298.633,302.443 282.056,285.467 280.397,287.208 278.552,288.968 295.523,305.552 &#9;&#9;&#9;&#9;&#9;&#9;"/>
					</g>
				</g>
				<g>
					<g>
						<polygon fill="#506FA6" points="284.165,379.665 279.843,379.636 276.037,375.64 272.146,371.934 272.122,367.613 &#10;&#9;&#9;&#9;&#9;&#9;&#9;&#9;291.321,348.863 295.516,353.16 278.543,369.736 280.285,371.397 282.044,373.242 298.627,356.27 302.921,360.467 &#9;&#9;&#9;&#9;&#9;&#9;"/>
					</g>
				</g>
				<g>
					<path fill="#506FA6" d="M269.03,291.807c-4.065,0-8.131-1.547-11.226-4.644c-2.999-2.999-4.65-6.985-4.65-11.226&#10;&#9;&#9;&#9;&#9;&#9;&#9;c0.002-4.24,1.653-8.226,4.651-11.223c6.19-6.19,16.26-6.188,22.45,0.001h0.001c6.187,6.191,6.185,16.263-0.005,22.45&#10;&#9;&#9;&#9;&#9;&#9;&#9;C277.158,290.26,273.094,291.807,269.03,291.807z M269.03,266.076c-2.527,0-5.054,0.962-6.979,2.885&#10;&#9;&#9;&#9;&#9;&#9;&#9;c-1.864,1.864-2.891,4.342-2.891,6.979c-0.001,2.637,1.026,5.114,2.889,6.979c1.864,1.864,4.342,2.891,6.979,2.891h0.002&#10;&#9;&#9;&#9;&#9;&#9;&#9;c2.635,0,5.113-1.025,6.977-2.888c3.848-3.848,3.849-10.109,0.002-13.959C274.086,267.039,271.557,266.076,269.03,266.076z"/>
				</g>
			</g>
		</g>
	</g>
</g>
</svg>